<svg id="Layer_1" data-name="Layer 1" xmlns="http://www.w3.org/2000/svg" viewBox="0 0 512 512"><title>gear</title><path d="M0,256C0,114.61,114.61,0,256,0S512,114.63,512,256,397.38,512,256,512,0,397.39,0,256Z" fill="#ffc100"/><path d="M396.09,229H364.22a2.93,2.93,0,0,1-2.59-1.87l-10.51-25.34a2.9,2.9,0,0,1,.51-3.14l22.55-22.55a2,2,0,0,0,0-2.79l-35.46-35.44a2,2,0,0,0-2.78,0l-22.55,22.55a2.92,2.92,0,0,1-3.15.51L284.9,150.38a2.93,2.93,0,0,1-1.86-2.59V115.91a2,2,0,0,0-2-2H230.94a2,2,0,0,0-2,2v31.88a2.94,2.94,0,0,1-1.86,2.59l-25.34,10.51a2.92,2.92,0,0,1-3.15-.51l-22.56-22.55a2,2,0,0,0-2.77,0l-35.46,35.44a2,2,0,0,0,0,2.79l22.55,22.55a2.91,2.91,0,0,1,.51,3.14L150.38,227.1a2.93,2.93,0,0,1-2.59,1.87H115.92a2,2,0,0,0-2,2v50.14a2,2,0,0,0,2,2h31.88a2.92,2.92,0,0,1,2.59,1.86l10.51,25.34a2.91,2.91,0,0,1-.51,3.14l-22.55,22.55a2,2,0,0,0,0,2.79l35.46,35.44a2,2,0,0,0,2.77,0l22.56-22.55a2.92,2.92,0,0,1,3.15-.5l25.34,10.51a2.92,2.92,0,0,1,1.86,2.59v31.87a2,2,0,0,0,2,2h50.14a2,2,0,0,0,2-2V364.22a2.91,2.91,0,0,1,1.86-2.59l25.34-10.51a2.92,2.92,0,0,1,3.15.5l22.55,22.55a2,2,0,0,0,2.78,0l35.46-35.44a2,2,0,0,0,0-2.79l-22.55-22.55a2.9,2.9,0,0,1-.51-3.14l10.51-25.34a2.92,2.92,0,0,1,2.59-1.86h31.88a2,2,0,0,0,2-2V230.94A2,2,0,0,0,396.09,229ZM256,305.16A49.15,49.15,0,1,1,305.16,256,49.15,49.15,0,0,1,256,305.16Z" fill="#fff"/></svg>